<mxfile host="65bd71144e">
    <diagram id="ZDqV_Z8pUche_bgFimt_" name="Page-1">
        <mxGraphModel dx="828" dy="721" grid="1" gridSize="10" guides="1" tooltips="1" connect="1" arrows="1" fold="1" page="1" pageScale="1" pageWidth="850" pageHeight="1100" math="0" shadow="0">
            <root>
                <mxCell id="0"/>
                <mxCell id="1" parent="0"/>
                <mxCell id="2" value="&lt;table style=&quot;box-sizing: border-box ; border-spacing: 0px ; border-collapse: collapse ; margin-top: 0px ; margin-bottom: 16px ; display: block ; max-width: 100% ; overflow: auto ; color: rgb(201 , 209 , 217) ; font-size: 16px ; font-style: normal ; font-weight: 400 ; letter-spacing: normal ; text-transform: none ; word-spacing: 0px ; background-color: rgb(13 , 17 , 23)&quot;&gt;&lt;thead style=&quot;box-sizing: border-box&quot;&gt;&lt;tr style=&quot;box-sizing: border-box ; border-top: 1px solid&quot;&gt;&lt;th align=&quot;left&quot; style=&quot;box-sizing: border-box ; padding: 6px 13px ; font-weight: 600 ; border: 1px solid&quot;&gt;VERB&lt;/th&gt;&lt;th align=&quot;left&quot; style=&quot;box-sizing: border-box ; padding: 6px 13px ; font-weight: 600 ; border: 1px solid&quot;&gt;URL pattern&lt;/th&gt;&lt;th align=&quot;left&quot; style=&quot;box-sizing: border-box ; padding: 6px 13px ; font-weight: 600 ; border: 1px solid&quot;&gt;Action (CRUD)&lt;/th&gt;&lt;th align=&quot;left&quot; style=&quot;box-sizing: border-box ; padding: 6px 13px ; font-weight: 600 ; border: 1px solid&quot;&gt;Description&lt;/th&gt;&lt;/tr&gt;&lt;/thead&gt;&lt;tbody style=&quot;box-sizing: border-box&quot;&gt;&lt;tr style=&quot;box-sizing: border-box ; border-top: 1px solid&quot;&gt;&lt;td align=&quot;left&quot; style=&quot;box-sizing: border-box ; padding: 6px 13px ; border: 1px solid&quot;&gt;GET&lt;/td&gt;&lt;td align=&quot;left&quot; style=&quot;box-sizing: border-box ; padding: 6px 13px ; border: 1px solid&quot;&gt;/&lt;/td&gt;&lt;td align=&quot;left&quot; style=&quot;box-sizing: border-box ; padding: 6px 13px ; border: 1px solid&quot;&gt;Index (Read)&lt;/td&gt;&lt;td align=&quot;left&quot; style=&quot;box-sizing: border-box ; padding: 6px 13px ; border: 1px solid&quot;&gt;Homepage&lt;/td&gt;&lt;/tr&gt;&lt;tr style=&quot;box-sizing: border-box ; border-top: 1px solid&quot;&gt;&lt;td align=&quot;left&quot; style=&quot;box-sizing: border-box ; padding: 6px 13px ; border: 1px solid&quot;&gt;GET&lt;/td&gt;&lt;td align=&quot;left&quot; style=&quot;box-sizing: border-box ; padding: 6px 13px ; border: 1px solid&quot;&gt;/user&lt;/td&gt;&lt;td align=&quot;left&quot; style=&quot;box-sizing: border-box ; padding: 6px 13px ; border: 1px solid&quot;&gt;Login (Read)&lt;/td&gt;&lt;td align=&quot;left&quot; style=&quot;box-sizing: border-box ; padding: 6px 13px ; border: 1px solid&quot;&gt;Login from '/' redirect to '/profile'&lt;/td&gt;&lt;/tr&gt;&lt;tr style=&quot;box-sizing: border-box ; border-top: 1px solid&quot;&gt;&lt;td align=&quot;left&quot; style=&quot;box-sizing: border-box ; padding: 6px 13px ; border: 1px solid&quot;&gt;POST&lt;/td&gt;&lt;td align=&quot;left&quot; style=&quot;box-sizing: border-box ; padding: 6px 13px ; border: 1px solid&quot;&gt;/user/new&lt;/td&gt;&lt;td align=&quot;left&quot; style=&quot;box-sizing: border-box ; padding: 6px 13px ; border: 1px solid&quot;&gt;New (Create)&lt;/td&gt;&lt;td align=&quot;left&quot; style=&quot;box-sizing: border-box ; padding: 6px 13px ; border: 1px solid&quot;&gt;creates a new user, email,username,password redirect to '/profile'&lt;/td&gt;&lt;/tr&gt;&lt;tr style=&quot;box-sizing: border-box ; border-top: 1px solid&quot;&gt;&lt;td align=&quot;left&quot; style=&quot;box-sizing: border-box ; padding: 6px 13px ; border: 1px solid&quot;&gt;GET&lt;/td&gt;&lt;td align=&quot;left&quot; style=&quot;box-sizing: border-box ; padding: 6px 13px ; border: 1px solid&quot;&gt;/profile&lt;/td&gt;&lt;td align=&quot;left&quot; style=&quot;box-sizing: border-box ; padding: 6px 13px ; border: 1px solid&quot;&gt;Show (Read)&lt;/td&gt;&lt;td align=&quot;left&quot; style=&quot;box-sizing: border-box ; padding: 6px 13px ; border: 1px solid&quot;&gt;profile dashboard&lt;/td&gt;&lt;/tr&gt;&lt;tr style=&quot;box-sizing: border-box ; border-top: 1px solid&quot;&gt;&lt;td align=&quot;left&quot; style=&quot;box-sizing: border-box ; padding: 6px 13px ; border: 1px solid&quot;&gt;POST&lt;/td&gt;&lt;td align=&quot;left&quot; style=&quot;box-sizing: border-box ; padding: 6px 13px ; border: 1px solid&quot;&gt;/profile/fave/&lt;/td&gt;&lt;td align=&quot;left&quot; style=&quot;box-sizing: border-box ; padding: 6px 13px ; border: 1px solid&quot;&gt;New (Create)&lt;/td&gt;&lt;td align=&quot;left&quot; style=&quot;box-sizing: border-box ; padding: 6px 13px ; border: 1px solid&quot;&gt;create a new fave list&lt;/td&gt;&lt;/tr&gt;&lt;tr style=&quot;box-sizing: border-box ; border-top: 1px solid&quot;&gt;&lt;td align=&quot;left&quot; style=&quot;box-sizing: border-box ; padding: 6px 13px ; border: 1px solid&quot;&gt;GET&lt;/td&gt;&lt;td align=&quot;left&quot; style=&quot;box-sizing: border-box ; padding: 6px 13px ; border: 1px solid&quot;&gt;/profile/fave/&lt;/td&gt;&lt;td align=&quot;left&quot; style=&quot;box-sizing: border-box ; padding: 6px 13px ; border: 1px solid&quot;&gt;Show (Read)&lt;/td&gt;&lt;td align=&quot;left&quot; style=&quot;box-sizing: border-box ; padding: 6px 13px ; border: 1px solid&quot;&gt;show page w/ fave list&lt;/td&gt;&lt;/tr&gt;&lt;tr style=&quot;box-sizing: border-box ; border-top: 1px solid&quot;&gt;&lt;td align=&quot;left&quot; style=&quot;box-sizing: border-box ; padding: 6px 13px ; border: 1px solid&quot;&gt;DELETE&lt;/td&gt;&lt;td align=&quot;left&quot; style=&quot;box-sizing: border-box ; padding: 6px 13px ; border: 1px solid&quot;&gt;/profile/fave/:id&lt;/td&gt;&lt;td align=&quot;left&quot; style=&quot;box-sizing: border-box ; padding: 6px 13px ; border: 1px solid&quot;&gt;Delete (Delete)&lt;/td&gt;&lt;td align=&quot;left&quot; style=&quot;box-sizing: border-box ; padding: 6px 13px ; border: 1px solid&quot;&gt;delete fave list redirect to '/profile'&lt;/td&gt;&lt;/tr&gt;&lt;tr style=&quot;box-sizing: border-box ; border-top: 1px solid&quot;&gt;&lt;td align=&quot;left&quot; style=&quot;box-sizing: border-box ; padding: 6px 13px ; border: 1px solid&quot;&gt;PUT&lt;/td&gt;&lt;td align=&quot;left&quot; style=&quot;box-sizing: border-box ; padding: 6px 13px ; border: 1px solid&quot;&gt;/profile&lt;/td&gt;&lt;td align=&quot;left&quot; style=&quot;box-sizing: border-box ; padding: 6px 13px ; border: 1px solid&quot;&gt;Update (Update)&lt;/td&gt;&lt;td align=&quot;left&quot; style=&quot;box-sizing: border-box ; padding: 6px 13px ; border: 1px solid&quot;&gt;update profile information and redirect back to /profile.&lt;/td&gt;&lt;/tr&gt;&lt;/tbody&gt;&lt;/table&gt;&lt;h3 dir=&quot;auto&quot; style=&quot;box-sizing: border-box ; margin-top: 24px ; margin-bottom: 16px ; font-size: 1.25em ; font-weight: 600 ; line-height: 1.25 ; color: rgb(201 , 209 , 217) ; font-style: normal ; letter-spacing: normal ; text-indent: 0px ; text-transform: none ; word-spacing: 0px ; background-color: rgb(13 , 17 , 23)&quot;&gt;&lt;a id=&quot;user-content-goals&quot; class=&quot;anchor&quot; href=&quot;https://github.com/DarcXnite/ygodeck-creator#goals&quot; style=&quot;box-sizing: border-box ; background-color: transparent ; text-decoration: none ; transition: 80ms cubic-bezier(0.33 , 1 , 0.68 , 1) 0s , , , ; float: left ; padding-right: 4px ; margin-left: -20px ; line-height: 1&quot;&gt;&lt;/a&gt;&lt;/h3&gt;" style="text;whiteSpace=wrap;html=1;" vertex="1" parent="1">
                    <mxGeometry x="130" y="100" width="570" height="490" as="geometry"/>
                </mxCell>
            </root>
        </mxGraphModel>
    </diagram>
</mxfile>